<svg xmlns="http://www.w3.org/2000/svg" viewBox="0 0 873 732" width="873" height="732">
  <path d="M 790 292 L 787 293 L 785 294 L 781 298 L 779 303 L 776 308 L 774 310 L 771 311 L 754 309 L 734 309 L 721 310 L 714 311 L 710 312 L 706 313 L 694 317 L 689 319 L 687 321 L 682 322 L 680 323 L 678 324 L 673 327 L 666 331 L 663 334 L 657 337 L 654 339 L 646 346 L 643 349 L 643 350 L 639 353 L 638 354 L 631 362 L 626 371 L 621 376 L 619 380 L 616 385 L 615 389 L 613 391 L 612 393 L 607 404 L 605 410 L 603 415 L 603 419 L 600 425 L 598 432 L 597 437 L 597 442 L 595 446 L 594 458 L 594 489 L 595 497 L 597 506 L 598 510 L 599 513 L 600 516 L 605 528 L 609 536 L 612 541 L 615 545 L 623 553 L 629 558 L 632 560 L 636 563 L 638 563 L 641 566 L 647 569 L 655 572 L 658 573 L 663 573 L 668 575 L 676 576 L 692 575 L 696 573 L 700 573 L 703 571 L 707 569 L 712 566 L 719 561 L 724 556 L 729 553 L 732 550 L 734 548 L 736 546 L 743 538 L 746 534 L 758 516 L 760 511 L 765 509 L 766 511 L 767 513 L 767 515 L 773 528 L 776 532 L 776 534 L 779 538 L 782 546 L 786 553 L 788 556 L 791 560 L 795 565 L 803 573 L 808 577 L 811 579 L 813 580 L 815 581 L 818 582 L 823 582 L 824 583 L 828 583 L 829 582 L 834 582 L 838 580 L 841 579 L 847 574 L 850 571 L 851 569 L 852 567 L 852 564 L 851 562 L 849 560 L 848 558 L 848 556 L 845 552 L 842 545 L 838 536 L 835 529 L 832 520 L 831 516 L 832 515 L 830 511 L 830 502 L 829 495 L 826 483 L 825 476 L 826 472 L 824 466 L 824 456 L 822 449 L 821 441 L 820 431 L 819 391 L 819 347 L 820 341 L 826 342 L 828 342 L 831 341 L 833 339 L 833 336 L 832 334 L 830 332 L 825 329 L 818 322 L 817 318 L 816 311 L 815 308 L 811 300 L 805 294 L 801 293 L 798 292 Z M 747 335 L 767 335 L 769 337 L 769 339 L 767 343 L 766 349 L 765 354 L 765 360 L 763 366 L 763 373 L 761 380 L 760 393 L 759 406 L 759 432 L 757 440 L 756 444 L 754 449 L 749 460 L 747 462 L 740 478 L 736 485 L 733 488 L 732 491 L 728 496 L 724 501 L 719 506 L 710 515 L 707 517 L 705 518 L 698 521 L 695 522 L 683 522 L 680 520 L 677 520 L 672 518 L 667 514 L 662 509 L 660 506 L 658 503 L 657 501 L 652 487 L 651 480 L 650 474 L 650 455 L 651 444 L 652 436 L 653 429 L 654 424 L 655 420 L 659 412 L 661 404 L 663 400 L 664 397 L 667 394 L 668 390 L 669 388 L 674 382 L 674 380 L 679 374 L 684 368 L 685 367 L 692 362 L 694 359 L 695 358 L 699 355 L 702 353 L 707 350 L 714 346 L 719 344 L 726 341 L 729 340 L 732 339 L 739 337 L 743 336 Z M 291 232 L 288 233 L 286 235 L 283 236 L 282 239 L 279 242 L 278 244 L 274 254 L 271 266 L 271 270 L 269 273 L 268 278 L 265 294 L 265 300 L 263 304 L 262 309 L 259 327 L 259 335 L 256 350 L 254 365 L 254 380 L 253 388 L 250 402 L 249 412 L 248 421 L 248 424 L 249 466 L 250 483 L 252 488 L 252 493 L 254 498 L 254 504 L 256 508 L 256 512 L 257 516 L 259 519 L 259 523 L 261 525 L 266 537 L 272 547 L 277 553 L 280 556 L 281 556 L 285 560 L 287 561 L 292 563 L 302 563 L 308 560 L 314 554 L 316 551 L 316 549 L 318 547 L 319 544 L 320 533 L 320 524 L 321 516 L 323 512 L 323 505 L 325 498 L 326 490 L 327 476 L 327 436 L 326 405 L 325 387 L 323 382 L 322 375 L 321 369 L 320 353 L 320 335 L 319 322 L 318 312 L 315 292 L 315 276 L 314 267 L 313 260 L 312 255 L 309 245 L 308 242 L 307 240 L 303 236 L 299 233 L 296 232 Z M 484 205 L 477 206 L 473 207 L 469 208 L 464 211 L 461 211 L 459 213 L 457 213 L 452 217 L 450 217 L 446 220 L 441 224 L 437 228 L 429 237 L 427 240 L 426 243 L 423 246 L 421 249 L 418 254 L 415 259 L 414 261 L 413 263 L 412 266 L 410 273 L 410 277 L 408 281 L 408 287 L 406 292 L 406 301 L 404 307 L 404 343 L 406 348 L 406 355 L 408 359 L 409 367 L 410 371 L 411 374 L 413 377 L 416 390 L 418 393 L 419 400 L 421 403 L 421 406 L 423 411 L 427 418 L 428 423 L 429 426 L 431 428 L 437 443 L 440 449 L 454 474 L 455 476 L 461 489 L 462 494 L 464 499 L 472 514 L 474 521 L 477 528 L 479 530 L 480 532 L 481 535 L 482 538 L 483 542 L 484 547 L 484 557 L 486 562 L 486 585 L 484 592 L 480 601 L 474 608 L 471 611 L 466 614 L 460 617 L 455 617 L 452 619 L 448 620 L 444 621 L 440 620 L 418 621 L 415 622 L 413 623 L 407 628 L 406 630 L 403 637 L 402 640 L 401 644 L 401 654 L 402 658 L 404 661 L 404 664 L 408 672 L 411 677 L 414 682 L 417 685 L 419 690 L 430 701 L 432 702 L 434 703 L 439 705 L 447 708 L 458 711 L 478 711 L 484 710 L 486 708 L 490 708 L 497 705 L 500 703 L 503 701 L 507 698 L 515 691 L 524 683 L 532 676 L 534 674 L 534 673 L 537 671 L 538 670 L 538 669 L 542 664 L 546 655 L 549 650 L 552 647 L 553 643 L 557 639 L 557 637 L 563 627 L 566 619 L 567 615 L 568 611 L 569 598 L 570 584 L 570 568 L 568 561 L 568 552 L 567 546 L 566 542 L 565 538 L 563 534 L 562 530 L 562 526 L 561 522 L 560 518 L 559 515 L 558 512 L 556 507 L 549 493 L 549 490 L 544 481 L 543 476 L 540 472 L 540 470 L 539 468 L 538 466 L 531 456 L 529 451 L 526 448 L 526 446 L 523 443 L 518 433 L 515 430 L 512 425 L 510 420 L 505 414 L 502 407 L 495 396 L 492 393 L 492 391 L 483 378 L 481 373 L 476 365 L 473 362 L 473 360 L 464 344 L 460 335 L 459 331 L 456 320 L 456 315 L 454 310 L 455 308 L 454 296 L 455 286 L 457 281 L 457 276 L 458 272 L 459 269 L 460 266 L 466 256 L 469 252 L 474 247 L 480 242 L 482 241 L 484 241 L 488 238 L 490 237 L 493 236 L 498 235 L 503 234 L 508 234 L 511 235 L 514 236 L 518 240 L 521 246 L 522 247 L 523 247 L 526 247 L 529 246 L 529 244 L 531 242 L 532 238 L 532 229 L 531 226 L 528 220 L 522 214 L 518 211 L 515 209 L 509 206 L 504 205 Z M 311 143 L 306 144 L 303 145 L 297 148 L 294 151 L 293 151 L 291 153 L 291 154 L 288 157 L 287 159 L 286 162 L 286 171 L 289 177 L 291 179 L 293 179 L 296 182 L 300 184 L 306 187 L 309 188 L 318 188 L 324 185 L 327 183 L 331 179 L 332 176 L 335 173 L 336 171 L 338 165 L 338 163 L 336 158 L 335 156 L 333 153 L 331 150 L 328 147 L 328 146 L 326 144 L 322 143 Z M 110 20 L 106 21 L 103 22 L 98 27 L 95 33 L 93 38 L 91 45 L 90 49 L 87 68 L 86 75 L 86 82 L 84 89 L 84 110 L 82 121 L 82 134 L 80 143 L 80 155 L 79 159 L 77 163 L 75 165 L 69 165 L 50 168 L 45 169 L 36 171 L 32 172 L 30 173 L 28 175 L 24 176 L 21 179 L 20 181 L 20 185 L 24 189 L 26 190 L 29 191 L 32 192 L 36 192 L 40 194 L 56 194 L 69 195 L 71 198 L 70 215 L 69 222 L 68 230 L 66 236 L 66 246 L 64 253 L 63 263 L 62 276 L 62 289 L 61 299 L 60 307 L 57 318 L 57 332 L 55 340 L 55 349 L 53 354 L 52 416 L 53 422 L 52 426 L 53 437 L 52 472 L 54 490 L 53 492 L 54 499 L 55 505 L 58 520 L 59 525 L 61 529 L 62 537 L 63 541 L 68 558 L 71 565 L 72 567 L 74 569 L 74 571 L 80 580 L 83 590 L 86 597 L 89 603 L 92 606 L 93 610 L 97 614 L 101 621 L 105 626 L 111 633 L 117 640 L 126 649 L 130 652 L 133 654 L 139 657 L 142 660 L 144 660 L 146 662 L 151 664 L 168 671 L 171 671 L 174 673 L 178 674 L 182 674 L 186 673 L 189 672 L 195 669 L 199 666 L 202 663 L 204 660 L 205 658 L 206 654 L 206 647 L 204 645 L 204 643 L 203 641 L 199 634 L 192 622 L 188 617 L 186 612 L 183 609 L 179 602 L 179 600 L 176 597 L 172 590 L 171 586 L 168 582 L 166 578 L 163 571 L 163 568 L 159 560 L 159 556 L 157 553 L 156 549 L 155 545 L 154 537 L 151 530 L 150 524 L 150 517 L 147 505 L 146 499 L 145 492 L 146 488 L 144 475 L 143 442 L 143 428 L 144 404 L 143 378 L 145 359 L 145 336 L 144 263 L 146 241 L 147 209 L 147 204 L 146 203 L 146 198 L 147 196 L 156 194 L 167 194 L 170 193 L 175 191 L 177 190 L 179 188 L 180 188 L 181 187 L 181 186 L 183 184 L 186 179 L 186 175 L 185 172 L 184 169 L 182 166 L 180 164 L 177 162 L 174 161 L 171 160 L 165 159 L 156 158 L 146 158 L 144 156 L 144 136 L 145 110 L 144 99 L 143 90 L 141 82 L 141 74 L 139 68 L 139 62 L 138 56 L 137 52 L 134 41 L 131 34 L 129 31 L 127 28 L 121 22 L 119 21 L 116 20 Z" fill="#F2F1ED" fill-rule="evenodd"/>
</svg>
